<svg preserveAspectRatio="none" width="100%" height="100%" overflow="visible" style="display: block;" viewBox="0 0 24 24" fill="none" xmlns="http://www.w3.org/2000/svg">
<g id="icon/log out">
<path id="Subtract" fill-rule="evenodd" clip-rule="evenodd" d="M15.621 2.66859L11.9314 2.08881C8.71084 1.58272 7.10055 1.32967 6.05027 2.22779C5 3.12591 5 4.75596 5 8.01607V11H10.9189L8.21875 7.625L9.78125 6.375L13.7812 11.375L14.2803 12L13.7812 12.625L9.78125 17.625L8.21875 16.375L10.9189 13H5V15.9831C5 19.2432 5 20.8733 6.05027 21.7714C7.10055 22.6695 8.71084 22.4165 11.9314 21.9104L15.621 21.3306C17.2337 21.0771 18.04 20.9504 18.52 20.3891C19 19.8279 19 19.0116 19 17.3791V6.6201C19 4.98758 19 4.17132 18.52 3.61003C18.04 3.04874 17.2337 2.92202 15.621 2.66859Z" fill="var(--fill-0, #959BA5)"/>
</g>
</svg>
