<svg preserveAspectRatio="none" width="100%" height="100%" overflow="visible" style="display: block;" viewBox="0 0 20 20" fill="none" xmlns="http://www.w3.org/2000/svg">
<g id="icon/search">
<path id="Subtract" d="M16.25 8.95833H15.25C15.25 12.4331 12.4331 15.25 8.95833 15.25V16.25V17.25C13.5377 17.25 17.25 13.5377 17.25 8.95833H16.25ZM8.95833 16.25V15.25C5.48354 15.25 2.66667 12.4331 2.66667 8.95833H1.66667H0.666667C0.666667 13.5377 4.37897 17.25 8.95833 17.25V16.25ZM1.66667 8.95833H2.66667C2.66667 5.48354 5.48354 2.66667 8.95833 2.66667V1.66667V0.666667C4.37897 0.666667 0.666667 4.37897 0.666667 8.95833H1.66667ZM8.95833 1.66667V2.66667C12.4331 2.66667 15.25 5.48354 15.25 8.95833H16.25H17.25C17.25 4.37897 13.5377 0.666667 8.95833 0.666667V1.66667Z" fill="var(--stroke-0, #959BA5)"/>
<path id="Vector 109" d="M18.3333 18.3333L15 15" stroke="var(--stroke-0, #959BA5)" stroke-width="2" stroke-linecap="round"/>
</g>
</svg>
