<svg width="640" height="360" viewBox="0 0 640 360" fill="none" xmlns="http://www.w3.org/2000/svg">
  <defs>
    <linearGradient id="coffee-bg" x1="80" y1="30" x2="560" y2="330" gradientUnits="userSpaceOnUse">
      <stop stop-color="#F4E4D4"/>
      <stop offset="1" stop-color="#E2CBAF"/>
    </linearGradient>
    <linearGradient id="coffee-liquid" x1="220" y1="160" x2="420" y2="210" gradientUnits="userSpaceOnUse">
      <stop stop-color="#B86B4B"/>
      <stop offset="1" stop-color="#8C3F2A"/>
    </linearGradient>
  </defs>
  <rect x="12" y="12" width="616" height="336" rx="28" fill="url(#coffee-bg)"/>
  <g filter="url(#shadow)">
    <rect x="180" y="120" width="240" height="140" rx="24" fill="white"/>
    <path d="M420 150C456 150 480 168 480 196C480 223 456 244 420 244L420 214C439 214 452 205 452 196C452 187 439 180 420 180Z" fill="white"/>
    <rect x="200" y="140" width="200" height="100" rx="18" fill="url(#coffee-liquid)"/>
    <path d="M240 120C240 105 250 92 264 88" stroke="#8C3F2A" stroke-width="7" stroke-linecap="round"/>
    <path d="M272 120C272 105 282 92 296 88" stroke="#8C3F2A" stroke-width="7" stroke-linecap="round"/>
    <path d="M304 120C304 105 314 92 328 88" stroke="#8C3F2A" stroke-width="7" stroke-linecap="round"/>
  </g>
  <filter id="shadow" x="150" y="90" width="360" height="210" filterUnits="userSpaceOnUse" color-interpolation-filters="sRGB">
    <feDropShadow dx="0" dy="16" stdDeviation="22" flood-color="#8C3F2A" flood-opacity="0.15"/>
  </filter>
</svg>
