<svg width="640" height="360" viewBox="0 0 640 360" fill="none" xmlns="http://www.w3.org/2000/svg">
  <defs>
    <linearGradient id="sn-bg" x1="60" y1="40" x2="560" y2="300" gradientUnits="userSpaceOnUse">
      <stop stop-color="#ECFEFF"/>
      <stop offset="1" stop-color="#CFFAFE"/>
    </linearGradient>
    <linearGradient id="sn-body" x1="200" y1="160" x2="480" y2="240" gradientUnits="userSpaceOnUse">
      <stop stop-color="#0F172A"/>
      <stop offset="1" stop-color="#111827"/>
    </linearGradient>
    <linearGradient id="sn-sole" x1="220" y1="240" x2="460" y2="260" gradientUnits="userSpaceOnUse">
      <stop stop-color="#F8FAFC"/>
      <stop offset="1" stop-color="#E2E8F0"/>
    </linearGradient>
  </defs>
  <rect x="12" y="12" width="616" height="336" rx="28" fill="url(#sn-bg)"/>
  <path d="M180 210C220 170 280 158 340 184L396 208C436 226 470 226 500 224C504 240 498 258 486 264C472 272 430 280 350 280C264 280 214 264 196 246C182 232 176 222 180 210Z" fill="url(#sn-sole)"/>
  <path d="M186 208C212 178 270 170 330 194L388 218C430 236 468 230 498 224C500 214 494 200 482 192C450 170 414 138 372 130C314 120 254 138 214 164C194 178 182 192 186 208Z" fill="url(#sn-body)"/>
  <path d="M240 192L334 196" stroke="#F59E0B" stroke-width="10" stroke-linecap="round"/>
  <path d="M252 214L340 218" stroke="#F59E0B" stroke-width="10" stroke-linecap="round"/>
  <circle cx="222" cy="210" r="8" fill="#F8FAFC" stroke="#CBD5E1" stroke-width="4"/>
  <circle cx="474" cy="214" r="14" fill="#F8FAFC" stroke="#CBD5E1" stroke-width="6"/>
</svg>
