<svg preserveAspectRatio="none" width="100%" height="100%" overflow="visible" style="display: block;" viewBox="0 0 612 497" fill="none" xmlns="http://www.w3.org/2000/svg">
<g id="blender">
<path id="Vector" d="M240.627 275.431C242.855 235.726 262.334 200.741 291.72 175.944C320.546 151.582 359.33 136.698 401.661 136.698C443.991 136.698 482.738 151.582 511.576 175.944C540.938 200.741 560.429 235.726 562.669 275.394C564.897 316.192 548.468 354.096 519.654 382.185C490.268 410.759 448.46 428.699 401.661 428.699C354.862 428.699 312.966 410.772 283.605 382.185C254.766 354.096 238.374 316.192 240.627 275.431Z" fill="var(--fill-0, white)"/>
<path id="Vector_2" d="M319.036 279.004C320.181 258.63 330.176 240.678 345.261 227.956C360.048 215.458 379.95 207.818 401.669 207.818C423.388 207.818 443.265 215.458 458.064 227.956C473.137 240.678 483.132 258.63 484.289 278.979C485.434 299.913 477.008 319.355 462.209 333.779C447.124 348.439 425.679 357.644 401.669 357.644C377.66 357.644 356.164 348.439 341.092 333.779C326.293 319.368 317.879 299.913 319.036 279.004Z" fill="var(--fill-0, #265787)"/>
<path id="Vector_3" d="M187.45 320.163C187.587 328.138 190.138 343.63 193.959 355.731C201.987 381.336 215.616 405.039 234.573 425.911C254.026 447.378 277.974 464.61 305.642 476.847C334.718 489.705 366.232 496.252 398.954 496.203C431.627 496.165 463.141 489.481 492.216 476.524C519.885 464.163 543.807 446.857 563.236 425.377C582.18 404.406 595.784 380.677 603.837 355.06C607.882 342.115 610.446 328.983 611.467 315.814C612.475 302.832 612.052 289.825 610.21 276.83C606.6 251.511 597.825 227.757 584.309 206.103C571.949 186.201 556.017 168.783 537.074 154.124L537.111 154.086L345.932 7.57677C345.758 7.45254 345.621 7.30346 345.434 7.19165C332.888 -2.42408 311.803 -2.38681 298 7.24134C284.06 16.9813 282.454 33.0945 294.864 43.2444L294.814 43.2941L374.547 108.02L131.515 108.281H131.191C111.103 108.306 91.798 121.462 87.9769 138.085C84.0438 155.018 97.6976 169.069 118.583 169.143L118.546 169.218L241.729 168.982L21.923 337.394C21.6367 337.593 21.338 337.816 21.0766 338.015C0.340635 353.867 -6.36806 380.217 6.70083 396.89C19.9564 413.848 48.1354 413.885 69.0954 396.989L189.068 298.993C189.068 298.993 187.325 312.224 187.462 320.163H187.45ZM495.726 364.465C471.007 389.597 436.406 403.859 398.954 403.934C361.453 403.996 326.851 389.87 302.132 364.775C290.059 352.55 281.185 338.475 275.708 323.492C270.344 308.758 268.265 293.129 269.647 277.351C270.954 261.934 275.547 247.225 282.89 233.919C290.097 220.837 300.029 209.023 312.289 199.022C336.311 179.48 366.904 168.895 398.904 168.858C430.929 168.82 461.498 179.293 485.545 198.773C497.78 208.724 507.7 220.502 514.919 233.559C522.287 246.852 526.855 261.512 528.212 276.966C529.569 292.719 527.49 308.335 522.125 323.07C516.637 338.102 507.799 352.165 495.726 364.452V364.465Z" fill="var(--fill-0, #EA7600)"/>
</g>
</svg>
