<svg preserveAspectRatio="none" width="100%" height="100%" overflow="visible" style="display: block;" viewBox="0 0 41 43" fill="none" xmlns="http://www.w3.org/2000/svg">
<g id="&#240;&#159;&#166;&#134; icon &#34;home&#34;">
<path id="Vector" d="M39.6183 17.4909L21.6417 0.819301C21.0573 0.27732 20.2878 -0.0159922 19.4938 0.000673187C18.6999 0.0173386 17.9431 0.342692 17.3816 0.908727L0.84846 17.5751L0 18.4303V43H15.9318V27.6699H24.6219V43H40.5537V18.3585L39.6183 17.4909ZM19.5561 2.92007C19.5816 2.92007 19.5659 2.92564 19.5549 2.9365C19.5436 2.92564 19.5306 2.92007 19.5561 2.92007ZM37.657 40.08H27.5186V27.6699C27.5186 26.8955 27.2134 26.1527 26.6702 25.6051C26.1269 25.0575 25.3901 24.7499 24.6219 24.7499H15.9318C15.1636 24.7499 14.4268 25.0575 13.8835 25.6051C13.3403 26.1527 13.0351 26.8955 13.0351 27.6699V40.08H2.89669V19.6398L19.5561 2.97345C19.5573 2.97236 19.5574 2.97136 19.5583 2.97026L37.657 19.6398V40.08Z" fill="var(--fill-0, black)"/>
</g>
</svg>
