<svg preserveAspectRatio="none" width="100%" height="100%" overflow="visible" style="display: block;" viewBox="0 0 24 24" fill="none" xmlns="http://www.w3.org/2000/svg">
<g id="icon/home">
<path id="Subtract" fill-rule="evenodd" clip-rule="evenodd" d="M4.33327 8.28407C4 9.00869 4 9.83304 4 11.4817V16.6308C4 18.9205 4 20.0653 4.71131 20.7766C5.38072 21.446 6.43408 21.4855 8.46425 21.4878V15.4162C8.46447 14.1936 9.45553 13.2025 10.6781 13.2023H14.3217C15.5443 13.2024 16.5353 14.1935 16.5355 15.4162V21.4878C18.5658 21.4855 19.6193 21.4461 20.2887 20.7766C21 20.0653 21 18.9205 21 16.6308V11.4817C21 9.83304 21 9.00869 20.6667 8.28407C20.3335 7.55946 19.7076 7.02298 18.4558 5.95002L17.2415 4.9092C14.9789 2.96983 13.8476 2.00014 12.5 2.00014C11.1524 2.00014 10.0211 2.96983 7.75852 4.9092L6.54423 5.95002C5.29244 7.02298 4.66655 7.55946 4.33327 8.28407ZM14.5355 21.4879V15.4162C14.5353 15.2981 14.4397 15.2024 14.3217 15.2023H10.6781C10.5601 15.2025 10.4645 15.2981 10.4642 15.4162V21.4879H14.5355Z" fill="var(--fill-0, #242730)"/>
</g>
</svg>
