<svg preserveAspectRatio="none" width="100%" height="100%" overflow="visible" style="display: block;" viewBox="0 0 25 22" fill="none" xmlns="http://www.w3.org/2000/svg">
<path id="Vector" d="M17.2543 0C16.2286 0.00992271 15.2195 0.259939 14.3078 0.730019C13.3961 1.2001 12.6072 1.87717 12.0043 2.707C11.4014 1.87717 10.6125 1.2001 9.70077 0.730019C8.78909 0.259939 7.77998 0.00992271 6.75429 0C4.89606 0.0742065 3.14281 0.881178 1.87791 2.24446C0.613006 3.60775 -0.0606322 5.41642 0.00429317 7.275C0.00429317 11.827 4.67829 16.7 8.60429 19.987C9.55762 20.7886 10.7632 21.2281 12.0088 21.2281C13.2544 21.2281 14.46 20.7886 15.4133 19.987C19.3353 16.7 24.0133 11.827 24.0133 7.275C24.0782 5.41492 23.4033 3.60493 22.1365 2.24139C20.8697 0.877851 19.1141 0.0718884 17.2543 0V0ZM13.4813 17.688C13.0677 18.0362 12.5444 18.2272 12.0038 18.2272C11.4631 18.2272 10.9399 18.0362 10.5263 17.688C5.74629 13.68 3.00429 9.885 3.00429 7.275C2.94054 6.21222 3.29857 5.16718 4.00068 4.36678C4.70278 3.56639 5.69226 3.07525 6.75429 3C7.81633 3.07525 8.80581 3.56639 9.50791 4.36678C10.21 5.16718 10.5681 6.21222 10.5043 7.275C10.5043 7.67283 10.6623 8.05436 10.9436 8.33566C11.2249 8.61696 11.6065 8.775 12.0043 8.775C12.4021 8.775 12.7836 8.61696 13.065 8.33566C13.3463 8.05436 13.5043 7.67283 13.5043 7.275C13.4405 6.21222 13.7986 5.16718 14.5007 4.36678C15.2028 3.56639 16.1923 3.07525 17.2543 3C18.3163 3.07525 19.3058 3.56639 20.0079 4.36678C20.71 5.16718 21.0681 6.21222 21.0043 7.275C21.0043 9.885 18.2623 13.68 13.4813 17.688Z" fill="var(--fill-0, #3C2F2F)"/>
</svg>
