<svg preserveAspectRatio="none" width="100%" height="100%" overflow="visible" style="display: block;" viewBox="0 0 167 167" fill="none" xmlns="http://www.w3.org/2000/svg">
<g id="Vector" filter="url(#filter0_d_303_9)">
<path fill-rule="evenodd" clip-rule="evenodd" d="M99.7838 25.0544C101.19 26.4603 101.19 28.7397 99.7838 30.1456L81.9647 47.9647C80.5588 49.3706 78.2794 49.3706 76.8735 47.9647L59.0544 30.1456C57.6485 28.7397 57.6485 26.4603 59.0544 25.0544C60.4603 23.6485 62.7397 23.6485 64.1456 25.0544L79.4191 40.3279L94.6926 25.0544C96.0985 23.6485 98.3779 23.6485 99.7838 25.0544Z" fill="white" fill-opacity="0.85"/>
<path fill-rule="evenodd" clip-rule="evenodd" d="M59.0544 65.7838C57.6485 64.3779 57.6485 62.0986 59.0544 60.6927L76.8735 42.8736C78.2794 41.4677 80.5588 41.4677 81.9647 42.8736L99.7838 60.6927C101.19 62.0986 101.19 64.3779 99.7838 65.7838C98.3779 67.1897 96.0985 67.1897 94.6926 65.7838L79.4191 50.5103L64.1456 65.7838C62.7397 67.1897 60.4603 67.1897 59.0544 65.7838Z" fill="white" fill-opacity="0.85"/>
</g>
<defs>
<filter id="filter0_d_303_9" x="-2.98023e-08" y="-2.98023e-08" width="166.838" height="166.838" filterUnits="userSpaceOnUse" color-interpolation-filters="sRGB">
<feFlood flood-opacity="0" result="BackgroundImageFix"/>
<feColorMatrix in="SourceAlpha" type="matrix" values="0 0 0 0 0 0 0 0 0 0 0 0 0 0 0 0 0 0 127 0" result="hardAlpha"/>
<feOffset dx="4" dy="38"/>
<feGaussianBlur stdDeviation="31"/>
<feColorMatrix type="matrix" values="0 0 0 0 0 0 0 0 0 0 0 0 0 0 0 0 0 0 0.5 0"/>
<feBlend mode="normal" in2="BackgroundImageFix" result="effect1_dropShadow_303_9"/>
<feBlend mode="normal" in="SourceGraphic" in2="effect1_dropShadow_303_9" result="shape"/>
</filter>
</defs>
</svg>
