<svg preserveAspectRatio="none" width="100%" height="100%" overflow="visible" style="display: block;" viewBox="0 0 24 24" fill="none" xmlns="http://www.w3.org/2000/svg">
<g id="icon/chat">
<path id="Subtract" fill-rule="evenodd" clip-rule="evenodd" d="M2.03425 10.2156C2 10.6071 2 11.0714 2 12C2 12.9286 2 13.393 2.03425 13.7844C2.41491 18.1354 5.86458 21.5851 10.2156 21.9658C10.6071 22 11.0714 22 12 22H17C18.8692 22 19.8038 22 20.5 21.5981C20.9561 21.3348 21.3348 20.9561 21.5981 20.5C22 19.8038 22 18.8692 22 17V12C22 11.0714 22 10.6071 21.9658 10.2156C21.5851 5.86458 18.1354 2.41491 13.7844 2.03425C13.393 2 12.9286 2 12 2C11.0714 2 10.6071 2 10.2156 2.03425C5.86458 2.41491 2.41491 5.86458 2.03425 10.2156ZM15 10C15.5523 10 16 10.4477 16 11C16 11.5523 15.5523 12 15 12H9C8.44772 12 8 11.5523 8 11C8 10.4477 8.44772 10 9 10H15ZM15 14C15.5523 14 16 14.4477 16 15C16 15.5523 15.5523 16 15 16H12C11.4477 16 11 15.5523 11 15C11 14.4477 11.4477 14 12 14H15Z" fill="var(--fill-0, #242730)"/>
</g>
</svg>
