<svg width="640" height="360" viewBox="0 0 640 360" fill="none" xmlns="http://www.w3.org/2000/svg">
  <defs>
    <linearGradient id="hp-bg" x1="40" y1="40" x2="580" y2="320" gradientUnits="userSpaceOnUse">
      <stop stop-color="#E0F2FE"/>
      <stop offset="1" stop-color="#C7D2FE"/>
    </linearGradient>
    <linearGradient id="hp-band" x1="200" y1="70" x2="440" y2="180" gradientUnits="userSpaceOnUse">
      <stop stop-color="#111827"/>
      <stop offset="1" stop-color="#1F2937"/>
    </linearGradient>
    <linearGradient id="hp-cup" x1="0" y1="0" x2="1" y2="1">
      <stop stop-color="#0EA5E9"/>
      <stop offset="1" stop-color="#6366F1"/>
    </linearGradient>
  </defs>
  <rect x="12" y="12" width="616" height="336" rx="28" fill="url(#hp-bg)"/>
  <path d="M210 214C210 158 252 116 308 116H332C388 116 430 158 430 214" stroke="url(#hp-band)" stroke-width="26" stroke-linecap="round"/>
  <rect x="170" y="170" width="56" height="120" rx="20" fill="url(#hp-cup)" stroke="#0B6BCB" stroke-width="6"/>
  <rect x="414" y="170" width="56" height="120" rx="20" fill="url(#hp-cup)" stroke="#0B6BCB" stroke-width="6"/>
  <rect x="236" y="182" width="44" height="96" rx="14" fill="#F1F5F9"/>
  <rect x="360" y="182" width="44" height="96" rx="14" fill="#F1F5F9"/>
  <circle cx="320" cy="234" r="10" fill="#111827"/>
  <rect x="286" y="144" width="68" height="18" rx="9" fill="url(#hp-band)"/>
</svg>
