<svg preserveAspectRatio="none" width="100%" height="100%" overflow="visible" style="display: block;" viewBox="0 0 24 24" fill="none" xmlns="http://www.w3.org/2000/svg">
<g id="icon/book">
<g id="Subtract">
<path fill-rule="evenodd" clip-rule="evenodd" d="M6.5 16H16C17.8856 16 18.8284 16 19.4142 15.4142C20 14.8284 20 13.8856 20 12V7C20 5.11438 20 4.17157 19.4142 3.58579C18.8284 3 17.8856 3 16 3H8C6.11438 3 5.17157 3 4.58579 3.58579C4 4.17157 4 5.11438 4 7V18.5C4 17.1193 5.11929 16 6.5 16ZM17 8C17 6.89543 16.1046 6 15 6L9 6C7.89543 6 7 6.89543 7 8C7 9.10457 7.89543 10 9 10L15 10C16.1046 10 17 9.10457 17 8Z" fill="var(--fill-0, #959BA5)"/>
<path d="M19.4142 15.4142L18.7071 14.7071L18.7071 14.7071L19.4142 15.4142ZM19.4142 3.58579L18.7071 4.29289L18.7071 4.29289L19.4142 3.58579ZM15 6L15 5L15 5L15 6ZM9 6L9 5H9V6ZM9 10L9 9H9V10ZM15 10L15 11H15V10ZM16 16V15H6.5V16V17H16V16ZM19.4142 15.4142L18.7071 14.7071C18.631 14.7832 18.495 14.8774 18.0613 14.9357C17.5988 14.9979 16.9711 15 16 15V16V17C16.9145 17 17.701 17.0021 18.3278 16.9179C18.9833 16.8297 19.6117 16.631 20.1213 16.1213L19.4142 15.4142ZM20 12H19C19 12.9711 18.9979 13.5988 18.9357 14.0613C18.8774 14.495 18.7832 14.631 18.7071 14.7071L19.4142 15.4142L20.1213 16.1213C20.631 15.6117 20.8297 14.9833 20.9179 14.3278C21.0021 13.701 21 12.9145 21 12H20ZM20 7H19V12H20H21V7H20ZM19.4142 3.58579L18.7071 4.29289C18.7832 4.36902 18.8774 4.50496 18.9357 4.9387C18.9979 5.40121 19 6.02892 19 7H20H21C21 6.08546 21.0021 5.29896 20.9179 4.67221C20.8297 4.01669 20.631 3.38834 20.1213 2.87868L19.4142 3.58579ZM16 3V4C16.9711 4 17.5988 4.00212 18.0613 4.06431C18.495 4.12262 18.631 4.21677 18.7071 4.29289L19.4142 3.58579L20.1213 2.87868C19.6117 2.36902 18.9833 2.17027 18.3278 2.08214C17.701 1.99788 16.9145 2 16 2V3ZM8 3V4H16V3V2H8V3ZM4.58579 3.58579L5.29289 4.29289C5.36902 4.21677 5.50496 4.12262 5.9387 4.06431C6.40121 4.00212 7.02892 4 8 4V3V2C7.08546 2 6.29896 1.99788 5.67221 2.08214C5.01669 2.17027 4.38834 2.36902 3.87868 2.87868L4.58579 3.58579ZM4 7H5C5 6.02892 5.00212 5.40121 5.06431 4.9387C5.12262 4.50496 5.21677 4.36902 5.29289 4.29289L4.58579 3.58579L3.87868 2.87868C3.36902 3.38834 3.17027 4.01669 3.08214 4.67221C2.99788 5.29896 3 6.08546 3 7H4ZM4 18.5H5V7H4H3V18.5H4ZM6.5 16V15C4.567 15 3 16.567 3 18.5H4H5C5 17.6716 5.67157 17 6.5 17V16ZM15 6L15 7C15.5523 7 16 7.44772 16 8H17H18C18 6.34315 16.6569 5 15 5L15 6ZM9 6L9 7L15 7L15 6L15 5L9 5L9 6ZM7 8H8C8 7.44772 8.44772 7 9 7V6V5C7.34315 5 6 6.34315 6 8H7ZM9 10V9C8.44772 9 8 8.55228 8 8H7H6C6 9.65685 7.34315 11 9 11V10ZM15 10L15 9L9 9L9 10L9 11L15 11L15 10ZM17 8H16C16 8.55229 15.5523 9 15 9V10V11C16.6569 11 18 9.65686 18 8H17ZM11 21V20H6.5V21V22H11V21ZM4 18.5H3C3 20.433 4.567 22 6.5 22V21V20C5.67157 20 5 19.3284 5 18.5H4Z" fill="var(--stroke-0, #959BA5)"/>
</g>
<path id="Vector 58" d="M20 21H10" stroke="var(--stroke-0, #959BA5)" stroke-width="2" stroke-linecap="round"/>
</g>
</svg>
