<svg preserveAspectRatio="none" width="100%" height="100%" overflow="visible" style="display: block;" viewBox="0 0 42 43" fill="none" xmlns="http://www.w3.org/2000/svg">
<g id="&#240;&#159;&#166;&#134; icon &#34;search&#34;">
<path id="Vector" d="M16.6798 4.30043C13.362 4.30043 10.1801 5.66045 7.83402 8.08129C5.48796 10.5021 4.16996 13.7855 4.16996 17.2091C4.16996 20.6327 5.48796 23.9161 7.83402 26.3369C10.1801 28.7577 13.362 30.1178 16.6798 30.1178C19.9977 30.1178 23.1796 28.7577 25.5257 26.3369C27.8717 23.9161 29.1897 20.6327 29.1897 17.2091C29.1897 13.7855 27.8717 10.5021 25.5257 8.08129C23.1796 5.66045 19.9977 4.30043 16.6798 4.30043ZM1.03032e-07 17.2091C0.000380146 14.47 0.634289 11.7706 1.84904 9.33511C3.0638 6.89967 4.82431 4.79855 6.98428 3.20638C9.14424 1.61422 11.6413 0.576995 14.2678 0.180907C16.8944 -0.215181 19.5747 0.0413095 22.0859 0.929062C24.597 1.81681 26.8666 3.31019 28.706 5.28507C30.5454 7.25996 31.9014 9.65932 32.6614 12.2837C33.4214 14.9082 33.5634 17.6819 33.0757 20.3743C32.5879 23.0668 31.4844 25.6002 29.8569 27.7641L41.0887 39.3539C41.4685 39.7597 41.6787 40.3031 41.6739 40.8672C41.6692 41.4313 41.4499 41.971 41.0633 42.3699C40.6767 42.7688 40.1538 42.995 39.6071 42.9999C39.0604 43.0048 38.5338 42.788 38.1405 42.3961L26.9088 30.8062C24.4432 32.7815 21.4899 34.0032 18.3849 34.3324C15.2798 34.6617 12.1475 34.0852 9.34415 32.6687C6.5408 31.2521 4.17891 29.0523 2.52705 26.3194C0.875189 23.5864 -0.000346775 20.43 1.03032e-07 17.2091Z" fill="var(--fill-0, #0D0D0D)"/>
</g>
</svg>
