<svg preserveAspectRatio="none" width="100%" height="100%" overflow="visible" style="display: block;" viewBox="0 0 41 43" fill="none" xmlns="http://www.w3.org/2000/svg">
<g id="&#240;&#159;&#166;&#134; icon &#34;user&#34;">
<path id="Vector" d="M20.0172 4.3C17.6577 4.3 15.3949 5.20607 13.7264 6.81888C12.058 8.43169 11.1207 10.6191 11.1207 12.9C11.1207 15.1809 12.058 17.3683 13.7264 18.9811C15.3949 20.5939 17.6577 21.5 20.0172 21.5C22.3768 21.5 24.6396 20.5939 26.3081 18.9811C27.9765 17.3683 28.9138 15.1809 28.9138 12.9C28.9138 10.6191 27.9765 8.43169 26.3081 6.81888C24.6396 5.20607 22.3768 4.3 20.0172 4.3ZM6.67241 12.9C6.67241 9.47871 8.07838 6.19754 10.581 3.77832C13.0837 1.3591 16.478 0 20.0172 0C23.5565 0 26.9508 1.3591 29.4535 3.77832C31.9561 6.19754 33.3621 9.47871 33.3621 12.9C33.3621 16.3213 31.9561 19.6025 29.4535 22.0217C26.9508 24.4409 23.5565 25.8 20.0172 25.8C16.478 25.8 13.0837 24.4409 10.581 22.0217C8.07838 19.6025 6.67241 16.3213 6.67241 12.9ZM11.1207 34.4C9.35106 34.4 7.6539 35.0796 6.40258 36.2892C5.15126 37.4988 4.44828 39.1394 4.44828 40.85C4.44828 41.4202 4.21395 41.9671 3.79684 42.3703C3.37973 42.7735 2.81402 43 2.22414 43C1.63426 43 1.06854 42.7735 0.651435 42.3703C0.234328 41.9671 0 41.4202 0 40.85C0 37.9989 1.17164 35.2646 3.25717 33.2486C5.34271 31.2326 8.1713 30.1 11.1207 30.1H28.9138C31.8632 30.1 34.6918 31.2326 36.7773 33.2486C38.8628 35.2646 40.0345 37.9989 40.0345 40.85C40.0345 41.4202 39.8002 41.9671 39.3831 42.3703C38.9659 42.7735 38.4002 43 37.8103 43C37.2205 43 36.6547 42.7735 36.2376 42.3703C35.8205 41.9671 35.5862 41.4202 35.5862 40.85C35.5862 39.1394 34.8832 37.4988 33.6319 36.2892C32.3806 35.0796 30.6834 34.4 28.9138 34.4H11.1207Z" fill="var(--fill-0, #0D0D0D)"/>
</g>
</svg>
