<svg preserveAspectRatio="none" width="100%" height="100%" overflow="visible" style="display: block;" viewBox="0 0 43 43" fill="none" xmlns="http://www.w3.org/2000/svg">
<path id="Vector" d="M41.9597 8.812C41.2925 7.08759 40.3305 5.52495 39.1275 4.21155C37.9236 2.89424 36.5042 1.84739 34.9465 1.12793C33.3312 0.378926 31.5987 -0.00445479 29.8496 3.9053e-05C27.3957 3.9053e-05 25.0016 0.750111 22.921 2.16691C22.4233 2.50583 21.9504 2.87809 21.5025 3.28369C21.0545 2.87809 20.5816 2.50583 20.0839 2.16691C18.0033 0.750111 15.6092 3.9053e-05 13.1553 3.9053e-05C11.3883 3.9053e-05 9.67611 0.377853 8.05845 1.12793C6.49554 1.85022 5.08692 2.88921 3.87741 4.21155C2.67286 5.52347 1.71063 7.08648 1.04526 8.812C0.353397 10.6066 0 12.5124 0 14.4736C0 16.3238 0.338465 18.2518 1.01042 20.2131C1.57287 21.8521 2.37921 23.5523 3.40953 25.2691C5.04213 27.9861 7.28695 30.8197 10.0743 33.6922C14.6933 38.4537 19.2676 41.7429 19.4617 41.8763L20.6414 42.7208C21.164 43.0931 21.836 43.0931 22.3586 42.7208L23.5382 41.8763C23.7323 41.7374 28.3016 38.4537 32.9256 33.6922C35.713 30.8197 37.9578 27.9861 39.5904 25.2691C40.6207 23.5523 41.4321 21.8521 41.9895 20.2131C42.6615 18.2518 42.9999 16.3238 42.9999 14.4736C43.0049 12.5124 42.6515 10.6066 41.9597 8.812ZM21.5025 38.3259C21.5025 38.3259 3.78284 25.6525 3.78284 14.4736C3.78284 8.812 7.97881 4.22267 13.1553 4.22267C16.7938 4.22267 19.9495 6.48955 21.5025 9.80098C23.0554 6.48955 26.2111 4.22267 29.8496 4.22267C35.0261 4.22267 39.2221 8.812 39.2221 14.4736C39.2221 25.6525 21.5025 38.3259 21.5025 38.3259Z" fill="var(--fill-0, black)"/>
</svg>
