<svg preserveAspectRatio="none" width="100%" height="100%" overflow="visible" style="display: block;" viewBox="0 0 18 18" fill="none" xmlns="http://www.w3.org/2000/svg">
<g id="Group 58">
<g id="Vector (Stroke)" filter="url(#filter0_d_303_11)">
<path fill-rule="evenodd" clip-rule="evenodd" d="M8 0C8.55228 0 9 0.447715 9 1V8C9 8.55228 8.55228 9 8 9H1C0.447715 9 0 8.55228 0 8C0 7.44771 0.447715 7 1 7H7V1C7 0.447715 7.44771 0 8 0Z" fill="var(--fill-0, white)" fill-opacity="0.85"/>
</g>
<g id="Vector (Stroke)_2" filter="url(#filter1_d_303_11)">
<path fill-rule="evenodd" clip-rule="evenodd" d="M8 16C7.44772 16 7 15.5523 7 15L7 8C7 7.44771 7.44772 7 8 7L15 7C15.5523 7 16 7.44772 16 8C16 8.55228 15.5523 9 15 9L9 9L9 15C9 15.5523 8.55228 16 8 16Z" fill="var(--fill-0, white)" fill-opacity="0.85"/>
</g>
</g>
<defs>
<filter id="filter0_d_303_11" x="0" y="0" width="11" height="11" filterUnits="userSpaceOnUse" color-interpolation-filters="sRGB">
<feFlood flood-opacity="0" result="BackgroundImageFix"/>
<feColorMatrix in="SourceAlpha" type="matrix" values="0 0 0 0 0 0 0 0 0 0 0 0 0 0 0 0 0 0 127 0" result="hardAlpha"/>
<feOffset dx="1" dy="1"/>
<feGaussianBlur stdDeviation="0.5"/>
<feColorMatrix type="matrix" values="0 0 0 0 0 0 0 0 0 0 0 0 0 0 0 0 0 0 0.25 0"/>
<feBlend mode="normal" in2="BackgroundImageFix" result="effect1_dropShadow_303_11"/>
<feBlend mode="normal" in="SourceGraphic" in2="effect1_dropShadow_303_11" result="shape"/>
</filter>
<filter id="filter1_d_303_11" x="7" y="7" width="11" height="11" filterUnits="userSpaceOnUse" color-interpolation-filters="sRGB">
<feFlood flood-opacity="0" result="BackgroundImageFix"/>
<feColorMatrix in="SourceAlpha" type="matrix" values="0 0 0 0 0 0 0 0 0 0 0 0 0 0 0 0 0 0 127 0" result="hardAlpha"/>
<feOffset dx="1" dy="1"/>
<feGaussianBlur stdDeviation="0.5"/>
<feColorMatrix type="matrix" values="0 0 0 0 0 0 0 0 0 0 0 0 0 0 0 0 0 0 0.25 0"/>
<feBlend mode="normal" in2="BackgroundImageFix" result="effect1_dropShadow_303_11"/>
<feBlend mode="normal" in="SourceGraphic" in2="effect1_dropShadow_303_11" result="shape"/>
</filter>
</defs>
</svg>
