<svg preserveAspectRatio="none" width="100%" height="100%" overflow="visible" style="display: block;" viewBox="0 0 32 32" fill="none" xmlns="http://www.w3.org/2000/svg">
<g id="Group 56">
<circle id="Ellipse 9" cx="16" cy="16" r="16" fill="var(--fill-0, white)" fill-opacity="0.2"/>
<g id="grommet-icons:power-reset">
<path id="Vector" d="M22.6667 12.6667C21.4975 10.2 18.9475 8.5 16 8.5C15.0151 8.5 14.0398 8.69399 13.1299 9.0709C12.2199 9.44781 11.3931 10.0003 10.6967 10.6967C10.0003 11.3931 9.44781 12.2199 9.0709 13.1299C8.69399 14.0398 8.5 15.0151 8.5 16C8.5 16.9849 8.69399 17.9602 9.0709 18.8701C9.44781 19.7801 10.0003 20.6069 10.6967 21.3033C11.3931 21.9997 12.2199 22.5522 13.1299 22.9291C14.0398 23.306 15.0151 23.5 16 23.5C17.9891 23.5 19.8968 22.7098 21.3033 21.3033M23.5 9V13.5H19.5" stroke="var(--stroke-0, white)" stroke-width="2" stroke-linecap="round" stroke-linejoin="round"/>
</g>
</g>
</svg>
